<?xml version="1.0" encoding="utf-8"?>
<!-- Generator: Adobe Illustrator 19.2.1, SVG Export Plug-In . SVG Version: 6.00 Build 0)  -->
<svg version="1.1" id="Layer_1" xmlns="http://www.w3.org/2000/svg" xmlns:xlink="http://www.w3.org/1999/xlink" x="0px" y="0px"
	 viewBox="0 0 111.5 112.2" style="enable-background:new 0 0 111.5 112.2;" xml:space="preserve" preserveAspectRation="xMidYMid meet">
<style type="text/css">
	.st0{fill-rule:evenodd;clip-rule:evenodd;}
	.st1{fill-rule:evenodd;clip-rule:evenodd;fill:#FFFFFF;}
</style>
<g>
	<g>
		<circle class="st0" cx="56.8" cy="56.6" r="41.3"/>
	</g>
	<g>
		<path class="st1" d="M49.2,47.1c-2.1-3-6.3-7-10.4-7c-2.7,0-4,1.7-4,3c0,1.9,1.6,3.1,5.6,5.7c8,5.1,14.2,8.7,14.2,15.5
			c0,7.1-7.6,9.6-9.9,15h-0.1c-5-7.2-13.6-8.6-17.2-5.4l-0.3-0.2c0.4-3.2,2.4-9,7.1-9c4.3,0,10,5.7,13.5,7.2c0.5,0.2,1,0.1,1.3-0.3
			c0.4-0.5,0.7-1.4,0.7-2.8c0-9.6-19.8-12.3-19.8-19.9c0-1.8,1.7-5,4-7.9c3-3.7,6.1-5.4,9.4-5.4c5.2,0,7.7,3.9,9.9,3.9
			c0.9,0,1.5-0.4,2.1-1.1l0.6,0.5c-1.3,1.3-2.7,2.9-4,4.5l-0.2,0.1C49.6,44.1,49.9,46.2,49.2,47.1"/>
		<path class="st1" d="M48.6,68.8c0-8.5-20.1-11.2-20.1-20.1l-0.2,0c-1.4,10,18.3,12.6,20.1,20.1L48.6,68.8z"/>
		<path class="st1" d="M49.7,47.5c-0.1-1.2,0.3-2.4,1.1-3.3c1-1.1,2.5-1.6,4.9-1.6c4.5,0,12.3,3.3,19.2,3.3c6,0,10.1-5.8,11.6-9
			l-0.7-1.9l-0.1,0c-0.4,2.6-2.6,5.8-7.5,5.8c-4.7,0-13.9-3.6-18.7-3.6c-6.9,0-10.3,5-10.9,9.1l0.8,1.1L49.7,47.5z"/>
		<rect x="72.3" y="44.9" class="st1" width="1.5" height="30"/>
		<path class="st1" d="M61.5,45.2l0.8,0.5c-3.2,2.4-5.7,6.8-5.7,12.3c0,9.2,5.4,16.8,14,16.8c5,0,8.1-2.5,9.6-5l0.1,0l0.2,2.2
			c-2.4,2.2-7.6,6-14.1,6C56.2,77.9,50,71,50,61.9C50,53.3,56,48,61.5,45.2"/>
		<path class="st1" d="M69.7,44.8l-3.8,2.1c-2.4,1.3-2.9,2.7-2.9,5.3c0,2.4,0.7,6.3,0.7,9.5c0,3.3-0.7,4.3-3.4,5.5l0.5,0.9
			c1.8-0.8,5-2.4,7-3.7c1.7-1.1,2-1.7,2-3.4V50.7c0-3.3,0.1-4.4,0.7-5.3L69.7,44.8z"/>
	</g>
</g>
</svg>
